  <svg xmlns="http://www.w3.org/2000/svg" style="width: 100%" viewBox="0 0 60 60">
                                    <g data-name="19-Warehouse">
                                        <rect x="18" y="42" width="8" height="4" rx="1"
                                            ry="1" style="fill:#f2f2f2" />
                                        <path
                                            d="M32 38v12a3 3 0 0 1-3 3H15a3 3 0 0 1-3-3V38h20zm-6 7v-2a1 1 0 0 0-1-1h-6a1 1 0 0 0-1 1v2a1 1 0 0 0 1 1h6a1 1 0 0 0 1-1z"
                                            style="fill:#e3a76f" />
                                        <path d="M34 34v3a1 1 0 0 1-1 1h-6l5-5h1a1 1 0 0 1 1 1z"
                                            style="fill:#f2f2f2" />
                                        <path style="fill:#c18f5f" d="m32 33-5 5h-5l5-5h5z" />
                                        <path style="fill:#f2f2f2" d="m27 33-5 5h-5l5-5h5z" />
                                        <path style="fill:#c18f5f" d="m22 33-5 5h-5l5-5h5z" />
                                        <path d="m17 33-5 5h-1a1 1 0 0 1-1-1v-3a1 1 0 0 1 1-1z" style="fill:#f2f2f2" />
                                        <path style="fill:#c39160" d="M12 38h20v3H12z" />
                                        <g data-name="&lt;Group&gt;">
                                            <path
                                                d="M54 27v29a3 3 0 0 1-3 3H9a3 3 0 0 1-3-3V27zM34 37v-3a1 1 0 0 0-1-1H11a1 1 0 0 0-1 1v3a1 1 0 0 0 1 1h1v12a3 3 0 0 0 3 3h14a3 3 0 0 0 3-3V38h1a1 1 0 0 0 1-1z"
                                                style="fill:#65b1fc" />
                                            <path
                                                d="M59 19v4a4 4 0 0 1-4 4H5a4 4 0 0 1-4-4v-4zm-4 4a1 1 0 1 0-1 1 1 1 0 0 0 1-1zm-4 0a1 1 0 1 0-1 1 1 1 0 0 0 1-1zm-4 0a1 1 0 1 0-1 1 1 1 0 0 0 1-1zm-4 0a1 1 0 1 0-1 1 1 1 0 0 0 1-1zm-4 0a1 1 0 1 0-1 1 1 1 0 0 0 1-1zm-4 0a1 1 0 1 0-1 1 1 1 0 0 0 1-1zm-4 0a1 1 0 1 0-1 1 1 1 0 0 0 1-1zm-4 0a1 1 0 1 0-1 1 1 1 0 0 0 1-1zm-4 0a1 1 0 1 0-1 1 1 1 0 0 0 1-1zm-4 0a1 1 0 1 0-1 1 1 1 0 0 0 1-1zm-4 0a1 1 0 1 0-1 1 1 1 0 0 0 1-1zm-4 0a1 1 0 1 0-1 1 1 1 0 0 0 1-1zm-4 0a1 1 0 1 0-1 1 1 1 0 0 0 1-1z"
                                                style="fill:#bec3d2" />
                                            <path style="fill:#dce1eb" d="M36 1h4l19 18H1L20 1h16z" />
                                            <circle cx="54" cy="23" r="1" style="fill:#7e8596" />
                                            <circle cx="50" cy="23" r="1" style="fill:#7e8596" />
                                            <circle cx="46" cy="23" r="1" style="fill:#7e8596" />
                                            <circle cx="42" cy="23" r="1" style="fill:#7e8596" />
                                            <circle cx="38" cy="23" r="1" style="fill:#7e8596" />
                                            <circle cx="34" cy="23" r="1" style="fill:#7e8596" />
                                            <circle cx="30" cy="23" r="1" style="fill:#7e8596" />
                                            <circle cx="26" cy="23" r="1" style="fill:#7e8596" />
                                            <circle cx="22" cy="23" r="1" style="fill:#7e8596" />
                                            <circle cx="18" cy="23" r="1" style="fill:#7e8596" />
                                            <circle cx="14" cy="23" r="1" style="fill:#7e8596" />
                                            <circle cx="10" cy="23" r="1" style="fill:#7e8596" />
                                            <circle cx="6" cy="23" r="1" style="fill:#7e8596" />
                                            <path style="fill:#bec3d2"
                                                d="m20 1-2 1.895V19h6V1h-4zM1 19h11V8.579L1 19zM42 2.895V19h6V8.579l-6-5.684zM30 1h6v18h-6z" />
                                            <path style="fill:#4a98f7" d="M6 27h48v3H6z" />
                                            <path
                                                d="M11 39v11a4 4 0 0 0 4 4h14a4 4 0 0 0 4-4V39a2 2 0 0 0 2-2v-3a2 2 0 0 0-2-2H11a2 2 0 0 0-2 2v3a2 2 0 0 0 2 2zm8.586-5-3 3h-2.172l3-3zm5 0-3 3h-2.172l3-3zm5 0-3 3h-2.172l3-3zM31 50a2 2 0 0 1-2 2H15a2 2 0 0 1-2-2V39h18zm2-13h-3.586l3-3H33zm-22-3h3.586l-3 3H11z"
                                                style="fill:#2b1505" />
                                            <path
                                                d="M25 41h-6a2 2 0 0 0-2 2v2a2 2 0 0 0 2 2h6a2 2 0 0 0 2-2v-2a2 2 0 0 0-2-2zm0 4h-6v-2h6z"
                                                style="fill:#2b1505" />
                                            <path
                                                d="M59.919 18.607c-.008-.019-.026-.033-.035-.052a1.025 1.025 0 0 0-.189-.27l-.007-.011-19-18A1 1 0 0 0 40 0H20a1 1 0 0 0-.688.274l-19 18-.007.011a1.025 1.025 0 0 0-.189.27c-.009.019-.027.033-.035.052A.994.994 0 0 0 0 19v4a5.006 5.006 0 0 0 5 5v28a4 4 0 0 0 4 4h42a4 4 0 0 0 4-4V28a5.006 5.006 0 0 0 5-5v-4a.994.994 0 0 0-.081-.393zM20.4 2H23v13a1 1 0 0 0 2 0V2h4v13a1 1 0 0 0 2 0V2h4v13a1 1 0 0 0 2 0V2h2.6L41 3.325V15a1 1 0 0 0 2 0V5.22l4 3.789V15a1 1 0 0 0 2 0v-4.1l7.49 7.1H3.51L11 10.9V15a1 1 0 0 0 2 0V9.009l4-3.789V15a1 1 0 0 0 2 0V3.325zM53 56a2 2 0 0 1-2 2H9a2 2 0 0 1-2-2V28h46zm2-30H5a3 3 0 0 1-3-3v-3h56v3a3 3 0 0 1-3 3z"
                                                style="fill:#2b1505" />
                                            <path
                                                d="M37 41h10.586l-1.293 1.293a1 1 0 1 0 1.414 1.414l3-3a1 1 0 0 0 0-1.414l-3-3a1 1 0 0 0-1.414 1.414L47.586 39H37a1 1 0 0 0 0 2zM36.293 48.707l3 3a1 1 0 0 0 1.414-1.414L39.414 49H49a1 1 0 0 0 0-2h-9.586l1.293-1.293a1 1 0 0 0-1.414-1.414l-3 3a1 1 0 0 0 0 1.414z"
                                                style="fill:#2b1505" />
                                        </g>
                                    </g>
                                </svg>
