<svg xmlns="http://www.w3.org/2000/svg" style="width: 100%" viewBox="0 0 512 512"
                                style="enable-background:new 0 0 512 512" xml:space="preserve">
                                <path style="fill:#ace5ac"
                                    d="M482.358 363.789H29.642c-11.906 0-21.558-9.651-21.558-21.558V169.768c0-11.906 9.651-21.558 21.558-21.558h452.716c11.906 0 21.558 9.651 21.558 21.558v172.463c0 11.907-9.652 21.558-21.558 21.558z" />
                                <path style="fill:#699e69"
                                    d="M460.8 331.453H51.2c-5.953 0-10.779-4.826-10.779-10.779V191.326c0-5.953 4.826-10.779 10.779-10.779h409.6c5.953 0 10.779 4.826 10.779 10.779v129.347c0 5.954-4.826 10.78-10.779 10.78z" />
                                <path style="fill:#febd4b"
                                    d="M315.284 385.347H196.716c-5.953 0-10.779-4.826-10.779-10.779V137.432c0-5.953 4.826-10.779 10.779-10.779h118.568c5.953 0 10.779 4.826 10.779 10.779v237.137c0 5.953-4.826 10.778-10.779 10.778z" />
                                <path style="fill:#c1c1c1" d="M288.337 385.347h-64.674V126.653h64.674v258.694z" />
                                <path style="fill:#81bc82"
                                    d="M137.432 256c0 14.882-12.065 26.947-26.947 26.947S83.537 270.882 83.537 256s12.065-26.947 26.947-26.947 26.948 12.064 26.948 26.947zm264.084-26.947c-14.883 0-26.947 12.065-26.947 26.947s12.065 26.947 26.947 26.947 26.947-12.065 26.947-26.947-12.065-26.947-26.947-26.947z" />
                                <path
                                    d="M75.453 256c0 19.317 15.715 35.032 35.032 35.032s35.032-15.715 35.032-35.032-15.715-35.032-35.032-35.032S75.453 236.683 75.453 256zm53.894 0c0 10.401-8.463 18.863-18.863 18.863S91.621 266.401 91.621 256s8.463-18.863 18.863-18.863 18.863 8.462 18.863 18.863zm-97.01 64.674V191.326c0-10.401 8.463-18.863 18.863-18.863h107.789a8.082 8.082 0 0 1 8.084 8.084 8.082 8.082 0 0 1-8.084 8.084H51.2a2.697 2.697 0 0 0-2.695 2.695v129.347a2.697 2.697 0 0 0 2.695 2.695h107.789a8.082 8.082 0 0 1 8.084 8.084 8.082 8.082 0 0 1-8.084 8.084H51.2c-10.401.001-18.863-8.462-18.863-18.862zM436.547 256c0-19.317-15.715-35.032-35.032-35.032-19.317 0-35.032 15.715-35.032 35.032s15.715 35.032 35.032 35.032c19.318 0 35.032-15.715 35.032-35.032zm-53.894 0c0-10.401 8.463-18.863 18.863-18.863 10.401 0 18.863 8.463 18.863 18.863 0 10.401-8.463 18.863-18.863 18.863-10.401 0-18.863-8.462-18.863-18.863zm99.705-115.874H334.147v-2.695c0-10.401-8.463-18.863-18.863-18.863H196.716c-10.401 0-18.863 8.463-18.863 18.863v2.695H29.642C13.298 140.126 0 153.424 0 169.768v172.463c0 16.344 13.298 29.642 29.642 29.642h148.211v2.695c0 10.401 8.463 18.863 18.863 18.863h118.568c10.401 0 18.863-8.463 18.863-18.863v-2.695h148.211c16.344 0 29.642-13.298 29.642-29.642V169.768c0-16.344-13.298-29.642-29.642-29.642zM177.853 355.705H29.642c-7.43 0-13.474-6.044-13.474-13.474V169.768c0-7.43 6.044-13.474 13.474-13.474h148.211v199.411zm140.126 18.863a2.697 2.697 0 0 1-2.695 2.695h-18.863V202.105c0-4.466-3.618-8.084-8.084-8.084s-8.084 3.618-8.084 8.084v175.158h-48.505v-56.589c0-4.466-3.618-8.084-8.084-8.084s-8.084 3.618-8.084 8.084v56.589h-18.863a2.697 2.697 0 0 1-2.695-2.695V137.432a2.697 2.697 0 0 1 2.695-2.695h18.863v153.6c0 4.466 3.618 8.084 8.084 8.084s8.084-3.618 8.084-8.084v-153.6h48.505v35.032c0 4.466 3.618 8.084 8.084 8.084s8.084-3.618 8.084-8.084v-35.032h18.863a2.697 2.697 0 0 1 2.695 2.695v237.136zm177.853-32.336c0 7.43-6.044 13.474-13.474 13.474H334.147V156.295h148.211c7.43 0 13.474 6.044 13.474 13.474v172.463zm-16.169-150.906v129.347c0 10.401-8.463 18.863-18.863 18.863H355.166a8.082 8.082 0 0 1-8.084-8.084 8.082 8.082 0 0 1 8.084-8.084H460.8a2.697 2.697 0 0 0 2.695-2.695V191.326a2.697 2.697 0 0 0-2.695-2.695H353.01a8.082 8.082 0 0 1-8.084-8.084 8.082 8.082 0 0 1 8.084-8.084H460.8c10.401 0 18.863 8.463 18.863 18.863z" />
                            </svg>
