<svg xmlns="http://www.w3.org/2000/svg" style="width: 100%" viewBox="0 0 64 64">
    <g id="_02-control_panal" data-name="02-control panal">
        <path d="M63 57v4a2.006 2.006 0 0 1-2 2H3a2.006 2.006 0 0 1-2-2v-4h62z" style="fill:#6e6e79" />
        <path style="fill:#7c828d" d="M13 23v34H1V25a2.006 2.006 0 0 1 2-2zM63 25v32H51V23h10a2.006 2.006 0 0 1 2 2z" />
        <path style="fill:#b2b9bf" d="M51 23v34H13V23h38zm-3 8a4 4 0 0 0-8 0c0 2.21 1.79 2 4 2s4 .21 4-2zm-2 10v-4h-4v4zm-8 0v-4h-4v4zm-2-10a4 4 0 0 0-8 0c0 2.21 1.79 2 4 2s4 .21 4-2zm-6 10v-4h-4v4zm-6-10a4 4 0 0 0-8 0c0 2.21 1.79 2 4 2s4 .21 4-2zm-2 10v-4h-4v4z" />
        <path style="fill:#b5e0f0" d="M44 33c-2.21 0-4 .21-4-2a4 4 0 0 1 8 0c0 2.21-1.79 2-4 2zM32 33c-2.21 0-4 .21-4-2a4 4 0 0 1 8 0c0 2.21-1.79 2-4 2zM20 33c-2.21 0-4 .21-4-2a4 4 0 0 1 8 0c0 2.21-1.79 2-4 2z" />
        <path style="fill:#00b39b" d="M42 37h4v4h-4zM26 37h4v4h-4z" />
        <path style="fill:#b8453d" d="M34 37h4v4h-4zM18 37h4v4h-4zM52 10h-5V5a5 5 0 0 1 5 5z" />
        <path style="fill:#fc9b28" d="M47 10h5a5 5 0 1 1-5-5z" />
        <path style="fill:#545465" d="M14 19h6v4h-6zM44 19h6v4h-6z" />
        <path style="fill:#b2b9bf" d="M30 15v2a2.006 2.006 0 0 1-2 2H6a2.006 2.006 0 0 1-2-2v-2h26z" />
        <path style="fill:#029e84" d="M25 15h-8V1h11a2.006 2.006 0 0 1 2 2v12z" />
        <path style="fill:#00b39b" d="M13 15H4V3a2.006 2.006 0 0 1 2-2h11v14zM60 3v14a2.006 2.006 0 0 1-2 2H36a2.006 2.006 0 0 1-2-2V3a2.006 2.006 0 0 1 2-2h22a2.006 2.006 0 0 1 2 2zm-8 7a5 5 0 1 0-5 5 5 5 0 0 0 5-5z" />
        <path style="fill:#29394a" d="M61 22H51v-2h7a3 3 0 0 0 3-3V3a3 3 0 0 0-3-3H36a3 3 0 0 0-3 3v14a3 3 0 0 0 3 3h7v2H21v-2h7a3 3 0 0 0 3-3V3a3 3 0 0 0-3-3H6a3 3 0 0 0-3 3v14a3 3 0 0 0 3 3h7v2H3a3 3 0 0 0-3 3v36a3 3 0 0 0 3 3h58a3 3 0 0 0 3-3V25a3 3 0 0 0-3-3zm-9 2h9a1 1 0 0 1 1 1v31H52zm-2 32H14V24h36zM35 17V3a1 1 0 0 1 1-1h22a1 1 0 0 1 1 1v14a1 1 0 0 1-1 1H36a1 1 0 0 1-1-1zm10 3h4v2h-4zM6 2h22a1 1 0 0 1 1 1v11h-3V6h-2v8h-2V8h-2v6h-2V4h-2v10h-2V6h-2v8h-2V8H8v6H5V3a1 1 0 0 1 1-1zM5 17v-1h24v1a1 1 0 0 1-1 1H6a1 1 0 0 1-1-1zm10 3h4v2h-4zM2 25a1 1 0 0 1 1-1h9v32H2zm59 37H3a1 1 0 0 1-1-1v-3h60v3a1 1 0 0 1-1 1z" />
        <path style="fill:#29394a" d="M15.767 33.142c.89.882 2.255.87 3.71.861L20 34H21.007a4.373 4.373 0 0 0 3.226-.863A2.894 2.894 0 0 0 25 31a5 5 0 0 0-10 0 2.894 2.894 0 0 0 .767 2.142zM20 28a3 3 0 0 1 3 3 1.129 1.129 0 0 1-.176.722A3.4 3.4 0 0 1 21 32v-2h-2v2a3.391 3.391 0 0 1-1.824-.282A1.129 1.129 0 0 1 17 31a3 3 0 0 1 3-3zM31.477 34h1.53a4.373 4.373 0 0 0 3.226-.863A2.894 2.894 0 0 0 37 31a5 5 0 0 0-10 0 2.894 2.894 0 0 0 .767 2.142c.889.882 2.258.87 3.71.858zM32 28a3 3 0 0 1 3 3 1.129 1.129 0 0 1-.176.722A3.4 3.4 0 0 1 33 32v-2h-2v2a3.4 3.4 0 0 1-1.824-.282A1.129 1.129 0 0 1 29 31a3 3 0 0 1 3-3zM43.477 34h1.53a4.373 4.373 0 0 0 3.226-.863A2.894 2.894 0 0 0 49 31a5 5 0 0 0-10 0 2.894 2.894 0 0 0 .767 2.142c.89.882 2.257.87 3.71.858zM44 28a3 3 0 0 1 3 3 1.129 1.129 0 0 1-.176.722A3.4 3.4 0 0 1 45 32v-2h-2v2a3.4 3.4 0 0 1-1.824-.282A1.129 1.129 0 0 1 41 31a3 3 0 0 1 3-3zM47 4a6 6 0 1 0 6 6 6.006 6.006 0 0 0-6-6zm3.858 5H48V6.142A4 4 0 0 1 50.858 9zM47 14a3.992 3.992 0 0 1-1-7.858V10a1 1 0 0 0 1 1h3.858A4 4 0 0 1 47 14zM22 42a1 1 0 0 0 1-1v-4a1 1 0 0 0-1-1h-4a1 1 0 0 0-1 1v4a1 1 0 0 0 1 1zm-3-4h2v2h-2zM25 41a1 1 0 0 0 1 1h4a1 1 0 0 0 1-1v-4a1 1 0 0 0-1-1h-4a1 1 0 0 0-1 1zm2-3h2v2h-2zM33 37v4a1 1 0 0 0 1 1h4a1 1 0 0 0 1-1v-4a1 1 0 0 0-1-1h-4a1 1 0 0 0-1 1zm2 1h2v2h-2zM46 36h-4a1 1 0 0 0-1 1v4a1 1 0 0 0 1 1h4a1 1 0 0 0 1-1v-4a1 1 0 0 0-1-1zm-1 4h-2v-2h2zM17 48h6v2h-6zM17 44h6v2h-6zM25 48h6v2h-6zM25 44h6v2h-6zM33 48h6v2h-6zM33 44h6v2h-6zM41 48h6v2h-6zM41 44h6v2h-6zM17 52h30v2H17zM54 27h6v2h-6zM54 35h6v2h-6zM54 43h6v2h-6zM54 51h6v2h-6zM4 27h6v2H4zM4 35h6v2H4zM4 43h6v2H4zM4 51h6v2H4z" />
    </g>
</svg>
