  <svg xmlns="http://www.w3.org/2000/svg" style="width: 100%" viewBox="0 0 64 64">
                                    <g data-name="28-Cash register">
                                        <path style="fill:#a8b7d4" d="M29 34v3H7v-3h22z" />
                                        <path style="fill:#5c6979" d="M7 31h3v3H7zM26 31h3v3h-3z" />
                                        <path style="fill:#edf4fa"
                                            d="M40 42v4h-6l.33-4H40zM40 42h5v4h-5zM45 42h5v4h-5zM55.67 42l.33 4h-6v-4h5.67zM55.33 38l.34 4H50v-4h5.33zM45 38h5v4h-5zM40 38h5v4h-5zM40 38v4h-5.67l.34-4H40zM40 34v4h-5.33l.33-4h5zM40 34h5v4h-5zM45 34h5v4h-5zM55 34l.33 4H50v-4h5z" />
                                        <path style="fill:#bd6f08" d="M49 27v2h-8v-6h8v4z" />
                                        <path
                                            d="M34 20h22V4H34zM59 3v18a2.006 2.006 0 0 1-2 2H33a2.006 2.006 0 0 1-2-2V3a2.006 2.006 0 0 1 2-2h24a2.006 2.006 0 0 1 2 2z"
                                            style="fill:#ffad39" />
                                        <path style="fill:#edf4fa" d="M34 4h22v16H34z" />
                                        <path style="fill:#e03e3e" d="M19 55h26v4H19z" />
                                        <path
                                            d="M63 51.37V59a4 4 0 0 1-4 4H5a4 4 0 0 1-4-4v-7.63c0-.13 0-.25.01-.37h61.98c.01.12.01.24.01.37zM45 59v-4H19v4z"
                                            style="fill:#fc9e20" />
                                        <path
                                            d="m55.67 42-.34-4-.33-4H35l-.33 4-.34 4-.33 4h22zm7.28 8.63c.01.13.03.25.04.37H1.01c.01-.12.03-.24.04-.37l2.73-21.88A2.007 2.007 0 0 1 5.77 27H10v4H7v6h22v-6h-3v-4h15v2h8v-2h9.23a2.007 2.007 0 0 1 1.99 1.75z"
                                            style="fill:#febd55" />
                                        <path d="M45 17a8 8 0 0 1-8-8V4h-3v16h22v-3z" style="fill:#c1cfe8" />
                                        <path d="M45 25h4v-2h-8v6h2v-2a2 2 0 0 1 2-2z" style="fill:#9e5d07" />
                                        <path
                                            d="M61 59H12a4 4 0 0 1-4-4v-4H1.01c-.01.12-.01.24-.01.37V59a4 4 0 0 0 4 4h54a4 4 0 0 0 4-4v-2a2 2 0 0 1-2 2z"
                                            style="fill:#e68c15" />
                                        <path
                                            d="M8.694 42.668A4 4 0 0 1 12.681 39H27a1 1 0 0 0 1-1v-1H7v-6h3v-4H5.77a2.007 2.007 0 0 0-1.99 1.75L1.05 50.63c-.01.13-.03.25-.04.37H8zM41 27v2h8l-1.414 1.414a2 2 0 0 1-1.414.586H33.5a1.5 1.5 0 0 1-1.5-1.5 1.5 1.5 0 0 1 1.5-1.5H38v-1z"
                                            style="fill:#fc9e20" />
                                        <path d="M19 55v4h3v-1a1 1 0 0 1 1-1h18a1 1 0 0 1 1 1v1h3v-4z"
                                            style="fill:#a81e29" />
                                        <path d="M10 31v3H7v-1h1a1 1 0 0 0 1-1v-1zM26 31v3h3v-1h-1a1 1 0 0 1-1-1v-1z"
                                            style="fill:#393d48" />
                                        <path d="M7 34v3h22v-3h-1a2 2 0 0 1-2 2H10a2 2 0 0 1-2-2H7z"
                                            style="fill:#8394b2" />
                                        <path style="fill:#edf4fa"
                                            d="M26 27v7H10V14l2 2 2-2 2 2 2-2 2 2 2-2 2 2 2-2v13z" />
                                        <path style="fill:#d6e0eb" d="M10 32h16v2H10z" />
                                        <path
                                            d="M33 24h7v5a1 1 0 0 0 1 1h8a1 1 0 0 0 1-1v-5h7a3 3 0 0 0 3-3V3a3 3 0 0 0-3-3H33a3 3 0 0 0-3 3v18a3 3 0 0 0 3 3zm15 4h-6v-4h6zM32 3a1 1 0 0 1 1-1h24a1 1 0 0 1 1 1v18a1 1 0 0 1-1 1H33a1 1 0 0 1-1-1z" />
                                        <path
                                            d="m63.946 50.505-2.735-21.877A3 3 0 0 0 58.234 26H51v2h7.234a1 1 0 0 1 .993.876l2.735 21.875a5.183 5.183 0 0 1 .038.623V59a3 3 0 0 1-3 3H5a3 3 0 0 1-3-3v-7.626a5.125 5.125 0 0 1 .038-.621l2.735-21.877A1 1 0 0 1 5.766 28H8v-2H5.766a3 3 0 0 0-2.977 2.628L.054 50.507a7.182 7.182 0 0 0-.054.867V59a5.006 5.006 0 0 0 5 5h54a5.006 5.006 0 0 0 5-5v-7.626a7.24 7.24 0 0 0-.054-.869z" />
                                        <path d="M28 26h11v2H28z" />
                                        <path
                                            d="M7 30a1 1 0 0 0-1 1v6a1 1 0 0 0 1 1h22a1 1 0 0 0 1-1v-6a1 1 0 0 0-1-1h-2V14a1 1 0 0 0-1.707-.707L24 14.586l-1.293-1.293a1 1 0 0 0-1.414 0L20 14.586l-1.293-1.293a1 1 0 0 0-1.414 0L16 14.586l-1.293-1.293a1 1 0 0 0-1.414 0L12 14.586l-1.293-1.293A1 1 0 0 0 9 14v16zm1 2h1v1H8zm0 4v-1h20v1zm20-4v1h-1v-1zM11 16.414l.293.293a1 1 0 0 0 1.414 0L14 15.414l1.293 1.293a1 1 0 0 0 1.414 0L18 15.414l1.293 1.293a1 1 0 0 0 1.414 0L22 15.414l1.293 1.293a1 1 0 0 0 1.414 0l.293-.293V33H11zM55 33H35a1 1 0 0 0-1 .917l-1 12A1 1 0 0 0 34 47h22a1 1 0 0 0 1-1.083l-1-12A1 1 0 0 0 55 33zm-.753 4H51v-2h3.08zM41 39h3v2h-3zm-2 2h-3.58l.167-2H39zm5-4h-3v-2h3zm2-2h3v2h-3zm-2 8v2h-3v-2zm2 0h3v2h-3zm0-2v-2h3v2zm5-2h3.413l.167 2H51zm-12-4v2h-3.247l.167-2zm-3.746 8H39v2h-3.913zM51 45v-2h3.746l.167 2zM7 50h54v2H7zM3 50h2v2H3zM34 21h22a1 1 0 0 0 1-1V9h-2v10H35V5h20v2h2V4a1 1 0 0 0-1-1H34a1 1 0 0 0-1 1v16a1 1 0 0 0 1 1zM19 54a1 1 0 0 0-1 1v4a1 1 0 0 0 1 1h26a1 1 0 0 0 1-1v-4a1 1 0 0 0-1-1zm25 4H20v-2h24z" />
                                        <path
                                            d="M13 18h2v2h-2zM17 18h2v2h-2zM13 21h2v2h-2zM17 21h2v2h-2zM13 25h10v2H13zM13 29h10v2H13zM37 7h2v2h-2zM41 7h2v2h-2zM37 10h2v2h-2zM41 10h2v2h-2z" />
                                    </g>
                                </svg>
