<?xml version="1.0" encoding="iso-8859-1"?>
<!-- Generator: Adobe Illustrator 19.0.0, SVG Export Plug-In . SVG Version: 6.00 Build 0)  -->
<svg version="1.1" id="Layer_1" xmlns="http://www.w3.org/2000/svg" xmlns:xlink="http://www.w3.org/1999/xlink" x="0px" y="0px"
	 viewBox="0 0 512 512" style="enable-background:new 0 0 512 512;" xml:space="preserve">
<path style="fill:#A0758E;" d="M472.668,442.23H145.629c-4.577,0-8.288-3.711-8.288-8.288V8.288c0-4.577,3.711-8.288,8.288-8.288
	h327.038c4.578,0,8.288,3.711,8.288,8.288v425.655C480.955,438.52,477.246,442.23,472.668,442.23z"/>
<g>
	<path style="fill:#826075;" d="M137.303,101.727h227.301c9.426,0,17.066,7.641,17.066,17.066v323.441l-181.899-0.415
		L137.302,120.59v-18.864H137.303z"/>
	<path style="fill:#826075;" d="M436.226,90.131H180.932c-3.272,0-6.199-1.93-7.337-4.839L147.407,18.37
		c-0.891-2.276-0.55-4.823,0.913-6.817s3.862-3.182,6.425-3.182h308.808c2.581,0,4.996,1.207,6.456,3.226
		c1.459,2.019,1.775,4.589,0.843,6.871l-27.327,66.922C442.357,88.247,439.458,90.131,436.226,90.131z"/>
</g>
<path style="fill:#FFEFCA;" d="M358.862,385.933l0.39-248.394c0.015-9.536-7.703-17.279-17.239-17.293L58.301,119.8
	c-9.536-0.015-17.279,7.703-17.293,17.239l-0.543,345.591c-0.015,9.536,7.703,17.279,17.239,17.293l283.71,0.445
	c9.536,0.015,17.279-7.703,17.293-17.239l0.072-45.759L358.862,385.933z"/>
<rect x="181.422" y="172.283" style="fill:#FFFFFF;" width="135.386" height="85.583"/>
<path d="M136.237,85.823c0,4.577,3.711,8.288,8.288,8.288c4.577,0,8.288-3.711,8.288-8.288V56.566l11.676,31.474
	c1.206,3.249,4.305,5.406,7.77,5.406h270.364c3.423,0,6.493-2.104,7.728-5.295l12.923-33.386v374.207h-58.703
	c-4.578,0-8.288,3.711-8.288,8.288s3.71,8.288,8.288,8.288h66.99c4.578,0,8.288-3.711,8.288-8.288V11.603
	c0-0.222-0.017-0.44-0.033-0.656c0.122-1.833-0.354-3.68-1.418-5.233c-1.545-2.255-4.103-3.603-6.837-3.603H144.524
	c-2.713,0-5.254,1.328-6.804,3.555c-1.09,1.565-1.577,3.434-1.452,5.291c-0.017,0.214-0.033,0.429-0.033,0.648v74.221H136.237z
	 M436.945,76.87H178.024l-21.138-56.98h302.115L436.945,76.87z"/>
<path d="M39.929,114.8c-4.571,0-8.281,3.702-8.288,8.274L31.045,503.2c-0.003,2.198,0.866,4.307,2.418,5.864
	c1.551,1.557,3.659,2.433,5.857,2.437L357.562,512c0.004,0,0.009,0,0.013,0c4.571,0,8.28-3.702,8.288-8.274l0.099-63.026
	c0.008-4.577-3.697-8.293-8.274-8.301c-0.004,0-0.009,0-0.013,0c-4.571,0-8.28,3.702-8.288,8.274l-0.086,54.738l-301.668-0.473
	l0.57-363.55l301.669,0.473l-0.403,257.374c-0.008,4.577,3.697,8.293,8.274,8.301c0.004,0,0.009,0,0.013,0
	c4.571,0,8.28-3.702,8.288-8.274l0.417-265.661c0.008-4.577-3.697-8.293-8.274-8.301L39.942,114.8
	C39.938,114.8,39.934,114.8,39.929,114.8z"/>
<path d="M316.899,371.608l-235.368-0.387c-0.004,0-0.009,0-0.014,0c-4.57,0-8.28,3.702-8.288,8.274
	c-0.008,4.577,3.697,8.293,8.274,8.301l235.367,0.387c0.006,0,0.01,0,0.014,0c4.571,0,8.28-3.702,8.288-8.274
	C325.18,375.332,321.476,371.616,316.899,371.608z"/>
<path d="M316.831,423.544c4.571,0,8.28-3.702,8.288-8.274c0.008-4.577-3.697-8.293-8.273-8.301l-235.368-0.387
	c-0.004,0-0.009,0-0.014,0c-4.57,0-8.28,3.702-8.288,8.274c-0.008,4.577,3.697,8.293,8.274,8.301l235.367,0.387
	C316.822,423.544,316.826,423.544,316.831,423.544z"/>
<path d="M316.899,297.572l-235.368-0.387c-0.004,0-0.009,0-0.014,0c-4.57,0-8.28,3.702-8.288,8.274
	c-0.008,4.577,3.697,8.293,8.274,8.301l235.367,0.387c0.006,0,0.01,0,0.014,0c4.571,0,8.28-3.702,8.288-8.274
	C325.18,301.296,321.476,297.58,316.899,297.572z"/>
<path d="M81.449,349.121l235.367,0.387c0.006,0,0.01,0,0.014,0c4.571,0,8.28-3.702,8.288-8.274c0.008-4.577-3.697-8.293-8.273-8.301
	l-235.368-0.387c-0.004,0-0.009,0-0.014,0c-4.57,0-8.28,3.702-8.288,8.274C73.168,345.397,76.872,349.113,81.449,349.121z"/>
<path d="M133.266,441.94c-0.004,0-0.009,0-0.013,0c-4.57,0-8.28,3.702-8.288,8.274c-0.007,4.577,3.697,8.293,8.274,8.301
	l123.762,0.194c0.004,0,0.009,0,0.013,0c4.571,0,8.28-3.702,8.286-8.274c0.008-4.577-3.697-8.293-8.274-8.301L133.266,441.94z"/>
<path d="M98.499,229.561c-3.516,0-6.291,4.627-6.291,7.772c0,5.788,8.669,11.385,19.427,11.979v2.291c0,2.414,1.976,4.39,4.389,4.39
	l0,0c2.414,0,4.389-1.976,4.389-4.39v-2.811c10.268-2.019,17.217-8.862,17.217-19.971c0-11.995-9.043-16.477-17.217-19.6v-13.784
	c5.212,0.693,6.942,3.316,9.817,3.316c4.071,0,5.736-5.087,5.736-7.586c0-6.027-9.647-7.682-15.552-8.004v-2.18
	c0-2.414-1.976-4.39-4.389-4.39l0,0c-2.414,0-4.389,1.976-4.389,4.39v2.539c-9.498,1.565-17.762,7.204-17.762,18.654
	c0,11.501,9.422,15.582,17.762,18.774v15.109C105.305,234.609,102.241,229.561,98.499,229.561z M124.126,230.302
	c0,2.606-1.538,4.239-3.711,5.185v-10.705C122.667,226.173,124.126,227.887,124.126,230.302z M107.382,200.789
	c0-1.894,1.295-3.714,4.255-4.726v9.782C109.057,204.543,107.382,203.019,107.382,200.789z"/>
<path d="M315.706,269.461c4.578,0,8.288-3.711,8.288-8.288v-85.579c0-4.577-3.71-8.288-8.288-8.288H180.315
	c-4.577,0-8.288,3.711-8.288,8.288v85.579c0,4.577,3.711,8.288,8.288,8.288H315.706z M188.602,183.882h118.816v69.004H188.602
	V183.882z"/>
<g>
</g>
<g>
</g>
<g>
</g>
<g>
</g>
<g>
</g>
<g>
</g>
<g>
</g>
<g>
</g>
<g>
</g>
<g>
</g>
<g>
</g>
<g>
</g>
<g>
</g>
<g>
</g>
<g>
</g>
</svg>
