  <svg xmlns="http://www.w3.org/2000/svg" style="width: 100%" viewBox="0 0 48 48">
                                    <g data-name="product analytic">
                                        <path style="fill:#edb996" d="M1 4h32v32H1z" />
                                        <path d="M33 4c0 31.16-.1 30 0 30C18.07 34 4 22.47 4 4z" style="fill:#f6ccaf" />
                                        <path d="M39 32a9 9 0 1 1-14.28-7.28A9 9 0 0 1 39 32z" style="fill:#9fdbf3" />
                                        <path d="M39 32a9 9 0 0 1-1.72 5.28 9 9 0 0 1-12.56-12.56A9 9 0 0 1 39 32z"
                                            style="fill:#b2e5fb" />
                                        <path
                                            d="M44.5 46.5a2.13 2.13 0 0 1-3 0l-6.82-6.82a8.88 8.88 0 0 0 3-3l6.82 6.82a2.12 2.12 0 0 1 0 3z"
                                            style="fill:#374f68" />
                                        <path
                                            d="M44.87 44A2.1 2.1 0 0 1 43 45.12c-1.17 0-1-.14-7.16-6.28a8.68 8.68 0 0 0 1.84-2.16c7.39 7.39 6.96 6.9 7.19 7.32z"
                                            style="fill:#425b72" />
                                        <path style="fill:#db5669" d="M28 10h4v8h-4z" />
                                        <path d="M32 10v6a3 3 0 0 1-3-3v-3z" style="fill:#f26674" />
                                        <path style="fill:#fc6" d="M35 8h4v10h-4z" />
                                        <path d="M39 8c0 8.55-.1 8 0 8a3 3 0 0 1-3-3V8z" style="fill:#ffde76" />
                                        <path style="fill:#9dcc6b" d="M42 4h4v14h-4z" />
                                        <path d="M46 4c0 12.64-.1 12 0 12a3 3 0 0 1-3-3V4z" style="fill:#b5e08c" />
                                        <path style="fill:#a87e6b" d="M12 4h10v8H12z" />
                                        <path d="M22 4v6h-2a6 6 0 0 1-6-6z" style="fill:#be927c" />
                                        <path style="fill:#dad7e5" d="M5 26h10v6H5z" />
                                        <path d="M15 26v5h-4a5 5 0 0 1-5-5z" style="fill:#edebf2" />
                                        <path
                                            d="M38.92 36.5A10 10 0 0 0 34 22.84V22a1 1 0 1 0-2 .2A10 10 0 0 0 20.46 35H2V5h9v7a1 1 0 0 0 1 1h10a1 1 0 0 0 1-1V5h9v1a1 1 0 0 0 2 0V4a1 1 0 0 0-1-1H1a1 1 0 0 0-1 1v32a1 1 0 0 0 1 1h20.35a10 10 0 0 0 13.15 3.92c6.28 6.27 6.68 7.2 8.5 7.2a3.13 3.13 0 0 0 2.21-5.33zM21 5v6h-8V5zm1 27a8 8 0 1 1 8 8 8 8 0 0 1-8-8zm20.21 13.79-6-6a10.73 10.73 0 0 0 1.58-1.58l6 6a1.12 1.12 0 0 1-1.58 1.58z" />
                                        <path
                                            d="M47 17V4a1 1 0 0 0-1-1h-4a1 1 0 0 0-1 1v13h-1V8a1 1 0 0 0-1-1h-4a1 1 0 0 0-1 1v9h-1v-7a1 1 0 0 0-1-1h-4a1 1 0 0 0-1 1v7a1 1 0 0 0 0 2h20a1 1 0 0 0 0-2zm-18 0v-6h2v6zm7 0V9h2v8zm7 0V5h2v12zM5 25a1 1 0 0 0-1 1v6a1 1 0 0 0 1 1h10a1 1 0 0 0 1-1v-6a1 1 0 0 0-1-1zm9 6H6v-4h8z" />
                                        <path d="M9 30h2a1 1 0 0 0 0-2H9a1 1 0 0 0 0 2z" />
                                    </g>
                                </svg>
