 <svg xmlns="http://www.w3.org/2000/svg" style="width: 100%" viewBox="0 0 48 48">
                                <g data-name="box exchange money">
                                    <path
                                        d="M21 11a10 10 0 0 1-2 6c-5.76 7.67-18 3.54-18-6a10 10 0 0 1 4-8 10 10 0 0 1 16 8z"
                                        style="fill:#fc6" />
                                    <path d="M21 11a10 10 0 0 1-2 6A10 10 0 0 1 5 3a10 10 0 0 1 16 8z"
                                        style="fill:#ffde76" />
                                    <path style="fill:#edb996" d="M29 29h18v18H29z" />
                                    <path d="M47 29c0 16.82-.1 16 0 16-7.54 0-15-5.64-15-16z" style="fill:#f6ccaf" />
                                    <path style="fill:#a87e6b" d="M35 29h6v4h-6z" />
                                    <path d="M41 29v3h-2a3 3 0 0 1-3-3z" style="fill:#be927c" />
                                    <path
                                        d="M11 22A11 11 0 1 0 0 11a11 11 0 0 0 11 11zm0-20a9 9 0 1 1-9 9 9 9 0 0 1 9-9zM47 28H29a1 1 0 0 0-1 1v18a1 1 0 0 0 1 1h18a1 1 0 0 0 1-1V29a1 1 0 0 0-1-1zm-7 2v2h-4v-2zm6 16H30V30h4v3a1 1 0 0 0 1 1h6a1 1 0 0 0 1-1v-3h4z" />
                                    <path
                                        d="M35 42h-2a1 1 0 0 0 0 2h2a1 1 0 0 0 0-2zM11 14a1 1 0 0 1-1-1 1 1 0 0 0-1-1c-1.66 0-1.21 3 1 3.82a1 1 0 1 0 2 0A3 3 0 0 0 11 10a1 1 0 1 1 1-1 1 1 0 0 0 1 1c1.66 0 1.21-3-1-3.82a1 1 0 1 0-2 0A3 3 0 0 0 11 12a1 1 0 0 1 0 2zM24 44A20 20 0 0 1 4.08 25.49l.21.22a1 1 0 0 0 1.42-1.42l-2-2a1 1 0 0 0-1.42 0l-2 2a1 1 0 0 0 1.42 1.42l.34-.34A22 22 0 0 0 24 46a1 1 0 0 0 0-2zM24 4a20 20 0 0 1 19.92 18.51l-.21-.22a1 1 0 0 0-1.42 1.42c3.08 3.07 2.33 3.09 5.42 0a1 1 0 0 0-1.42-1.42l-.34.34A22 22 0 0 0 24 2a1 1 0 0 0 0 2z" />
                                </g>
                            </svg>
