  <svg xmlns="http://www.w3.org/2000/svg" style="width: 100%" viewBox="0 0 512 512"
                                    style="enable-background:new 0 0 512 512" xml:space="preserve">
                                    <path style="fill:#ff5948" d="M222.584 82.202h84.093v58.734h-84.093z" />
                                    <path style="fill:#d44a3c" d="M222.584 82.202h20.898v58.734h-20.898z" />
                                    <path style="fill:#ff5948" d="M333.312 82.202h84.093v58.734h-84.093z" />
                                    <path style="fill:#d44a3c" d="M333.312 82.202h20.898v58.734h-20.898z" />
                                    <path style="fill:#cca38d" d="M40.42 164.122h431.156v265.676H40.42z" />
                                    <path style="fill:#a68472" d="M40.42 164.122h20.898v265.676H40.42z" />
                                    <path style="fill:#5e5456" d="M199.576 201.394h239.282v228.404H199.576z" />
                                    <path style="fill:#ff5948"
                                        d="M199.576 201.394h239.282v41.788H199.576zM84.02 243.179h84.093v186.619H84.02z" />
                                    <path style="fill:#d44a3c" d="M84.02 243.179h20.898v186.619H84.02z" />
                                    <path style="fill:#ff5948" d="M8.662 225.771h43.886v85.68H8.662z" />
                                    <path style="fill:#ffd359" d="M20.126 130.341h471.751v50.153H20.126z" />
                                    <path style="fill:#db9840" d="M20.126 130.341h20.898v50.153H20.126z" />
                                    <path style="fill:#cca38d"
                                        d="M307.475 429.801h-72.379c-.65 0-1.177-.527-1.177-1.177v-75.317c0-.65.527-1.177 1.177-1.177h72.379c.65 0 1.177.527 1.177 1.177v75.317a1.178 1.178 0 0 1-1.177 1.177z" />
                                    <path style="fill:#a68472"
                                        d="M254.816 428.624v-75.317c0-.65.527-1.177 1.177-1.177h-20.898c-.65 0-1.177.527-1.177 1.177v75.317c0 .65.527 1.177 1.177 1.177h20.898a1.178 1.178 0 0 1-1.177-1.177z" />
                                    <path style="fill:#cca38d"
                                        d="M402.912 429.801h-72.379c-.65 0-1.177-.527-1.177-1.177v-75.317c0-.65.527-1.177 1.177-1.177h72.379c.65 0 1.177.527 1.177 1.177v75.317a1.178 1.178 0 0 1-1.177 1.177z" />
                                    <path style="fill:#a68472"
                                        d="M350.253 428.624v-75.317c0-.65.527-1.177 1.177-1.177h-20.898c-.65 0-1.177.527-1.177 1.177v75.317c0 .65.527 1.177 1.177 1.177h20.898c-.65 0-1.177-.527-1.177-1.177z" />
                                    <path style="fill:#cca38d"
                                        d="M402.912 352.131h-72.379c-.65 0-1.177-.527-1.177-1.177v-75.317c0-.65.527-1.177 1.177-1.177h72.379c.65 0 1.177.527 1.177 1.177v75.317a1.178 1.178 0 0 1-1.177 1.177z" />
                                    <path style="fill:#a68472"
                                        d="M350.253 350.954v-75.317c0-.65.527-1.177 1.177-1.177h-20.898c-.65 0-1.177.527-1.177 1.177v75.317c0 .65.527 1.177 1.177 1.177h20.898c-.65 0-1.177-.527-1.177-1.177z" />
                                    <path
                                        d="M283.194 96.497h-37.616c-4.328 0-7.837 3.512-7.837 7.844s3.509 7.844 7.837 7.844h37.616c4.328 0 7.837-3.512 7.837-7.844 0-4.332-3.509-7.844-7.837-7.844zM393.927 96.497H356.31c-4.328 0-7.837 3.512-7.837 7.844s3.509 7.844 7.837 7.844h37.616c4.328 0 7.837-3.512 7.837-7.844 0-4.332-3.509-7.844-7.836-7.844z" />
                                    <ellipse cx="143.496" cy="323.5" rx="7.837" ry="7.844" />
                                    <path
                                        d="M504.163 422.123H479.42V291.559c0-4.332-3.509-7.844-7.837-7.844-4.328 0-7.837 3.512-7.837 7.844V422.12h-17.053V201.338c0-4.332-3.509-7.844-7.837-7.844h-239.28c-4.328 0-7.837 3.512-7.837 7.844V422.12h-15.794V243.165c0-4.332-3.509-7.844-7.837-7.844H84.015c-4.328 0-7.837 3.512-7.837 7.844V422.12H48.253V319.349h4.295c4.328 0 7.837-3.512 7.837-7.844v-85.763c0-4.332-3.509-7.844-7.837-7.844h-4.295v-29.639h415.493v64.497c0 4.332 3.509 7.844 7.837 7.844 4.328 0 7.837-3.512 7.837-7.844v-64.497h12.454c4.328 0 7.837-3.512 7.837-7.844v-50.201c0-4.332-3.509-7.844-7.837-7.844h-66.632V82.032c0-4.332-3.509-7.844-7.837-7.844h-84.093c-4.328 0-7.837 3.512-7.837 7.844v40.337h-10.961V82.032c0-4.332-3.509-7.844-7.837-7.844h-84.093c-4.328 0-7.837 3.512-7.837 7.844v40.337h-63.412c-4.328 0-7.837 3.512-7.837 7.844 0 4.332 3.509 7.844 7.837 7.844h71.167c.027 0 .053.004.08.004.027 0 .053-.004.08-.004h83.931c.027 0 .053.004.08.004.027 0 .053-.004.08-.004h26.472c.027 0 .053.004.08.004.027 0 .053-.004.08-.004h83.931c.027 0 .053.004.08.004s.053-.004.08-.004h66.551v34.512h-12.374c-.027 0-.053-.004-.08-.004s-.053.004-.08.004H40.498c-.027 0-.053-.004-.08-.004-.027 0-.053.004-.08.004H27.963v-34.512h82.797c4.328 0 7.837-3.512 7.837-7.844 0-4.332-3.509-7.844-7.837-7.844H20.126c-4.328 0-7.837 3.512-7.837 7.844v50.201c0 4.332 3.509 7.844 7.837 7.844H32.58v29.639H8.663c-4.328 0-7.837 3.512-7.837 7.844v23.458c0 4.332 3.509 7.844 7.837 7.844s7.837-3.512 7.837-7.844v-15.614h28.212v70.074H16.5v-17.331c0-4.332-3.509-7.844-7.837-7.844s-7.837 3.512-7.837 7.844v25.175c0 4.332 3.509 7.844 7.837 7.844h23.918v102.775H7.837c-4.328 0-7.837 3.512-7.837 7.844 0 4.334 3.509 7.846 7.837 7.846H504.162c4.328 0 7.837-3.512 7.837-7.844.001-4.332-3.508-7.845-7.836-7.845zM341.149 89.877h68.42v32.492h-68.42V89.877zm-110.728 0h68.42v32.492h-68.42V89.877zm147.176 301.218 18.655-19.407v38.814l-18.655-19.407zm8.073 31.025h-37.895l18.948-19.712 18.947 19.712zm-18.948-42.338-18.951-19.715h37.903l-18.952 19.715zm-18.952-35.405 18.951-19.715 18.951 19.715H347.77zm8.076 46.718-18.655 19.407v-38.814l18.655 19.407zm40.405-58.34-18.655-19.407 18.655-19.407v38.814zm-29.529-30.72L347.77 282.32h37.903l-18.951 19.715zm-10.876 11.314-18.655 19.407v-38.814l18.655 19.407zM252.338 422.12l18.948-19.712 18.948 19.712h-37.896zm48.478-11.618-18.655-19.407 18.655-19.407v38.814zm-29.531-30.72-18.951-19.715h37.903l-18.952 19.715zm-10.875 11.313-18.655 19.407v-38.814l18.655 19.407zm-52.998-160.999H431.02v5.226H207.412v-5.226zm223.608-20.914v5.224H207.412v-5.224H431.02zm-223.608 41.829H431.02V422.12h-19.095V353.4c0-.183-.017-.362-.027-.541.007-.088.006-.176.01-.262a7.822 7.822 0 0 0 0-.749c-.004-.088-.004-.176-.01-.262.01-.18.027-.358.027-.541v-75.389c0-.183-.017-.362-.027-.541a7.829 7.829 0 0 0-8.389-8.451c-.199-.014-.396-.03-.597-.03h-72.38c-.202 0-.399.017-.598.03a7.829 7.829 0 0 0-8.388 8.451c-.01.18-.027.358-.027.541v75.389c0 .183.017.362.027.541-.007.088-.006.176-.01.262a7.815 7.815 0 0 0 0 .749c.004.088.004.176.01.262-.01.18-.027.358-.027.541v68.72h-5.029V353.4c0-.183-.017-.362-.027-.541a7.829 7.829 0 0 0-8.388-8.451c-.199-.014-.396-.03-.599-.03h-72.38c-.202 0-.4.017-.599.03a7.829 7.829 0 0 0-8.388 8.451c-.01.18-.027.358-.027.541v68.72h-18.668V251.011zm-115.56 0h68.42V422.12h-68.42V251.011z" />
                                </svg>
