  <svg style="width: 100%" xmlns="http://www.w3.org/2000/svg" viewBox="0 0 256 256"
                                    xml:space="preserve">
                                    <path fill="#CECECE"
                                        d="M32.035 211.454c-7.535 0-13.665-6.13-13.665-13.665V74.012c0-7.535 6.13-13.665 13.665-13.665h191.931c7.535 0 13.665 6.13 13.665 13.665v123.776c0 7.535-6.13 13.665-13.665 13.665H32.035z" />
                                    <path fill="#E2E2E2"
                                        d="M223.965 60.348h-14.667c7.534 0 13.665 6.13 13.665 13.665v123.776c0 7.534-6.13 13.665-13.665 13.665h14.667c7.535 0 13.665-6.13 13.665-13.665V74.012c0-7.534-6.13-13.664-13.665-13.664z" />
                                    <path fill="#AFAFAF"
                                        d="M32.035 60.348h14.667c-7.534 0-13.665 6.13-13.665 13.665v123.776c0 7.534 6.13 13.665 13.665 13.665H32.035c-7.535 0-13.665-6.13-13.665-13.665V74.012c0-7.534 6.13-13.664 13.665-13.664z" />
                                    <path fill="#63BCE7"
                                        d="M229.221 74.036v123.728a5.28 5.28 0 0 1-5.28 5.28H32.059a5.28 5.28 0 0 1-5.28-5.28V74.036a5.28 5.28 0 0 1 5.28-5.28h191.882a5.28 5.28 0 0 1 5.28 5.28z" />
                                    <path fill="#63E2E7"
                                        d="M223.941 68.756h-14.667a5.28 5.28 0 0 1 5.28 5.28v123.728a5.28 5.28 0 0 1-5.28 5.28h14.667a5.28 5.28 0 0 0 5.28-5.28V74.036a5.28 5.28 0 0 0-5.28-5.28z" />
                                    <path fill="#6377E7"
                                        d="M32.059 68.756h14.667a5.28 5.28 0 0 0-5.28 5.28v123.728a5.28 5.28 0 0 0 5.28 5.28H32.059a5.28 5.28 0 0 1-5.28-5.28V74.036a5.28 5.28 0 0 1 5.28-5.28z" />
                                    <path fill="#CECECE"
                                        d="M128 211.454H8.667l3.053 7.024a17.333 17.333 0 0 0 15.896 10.423h200.769a17.333 17.333 0 0 0 15.896-10.423l3.053-7.024H128z" />
                                    <path fill="#E2E2E2"
                                        d="m232.667 211.454-3.053 7.024a17.333 17.333 0 0 1-15.896 10.423h14.667a17.333 17.333 0 0 0 15.896-10.423l3.053-7.024h-14.667z" />
                                    <path fill="#AFAFAF"
                                        d="m23.333 211.454 3.053 7.024a17.333 17.333 0 0 0 15.896 10.423H27.615a17.333 17.333 0 0 1-15.896-10.423l-3.053-7.024h14.667z" />
                                    <path fill="#707070"
                                        d="m82.442 211.454 4.22 5.388a8.7 8.7 0 0 0 6.85 3.336h68.975a8.7 8.7 0 0 0 6.85-3.336l4.221-5.388H82.442z" />
                                    <path fill="#CECECE" d="m186.794 42.538-26.412-26.412H69.206v161.071h117.588z" />
                                    <path fill="#F46275" d="M85.276 102.648h19.132v54.698H85.276z" />
                                    <path fill="#F8AF23" d="M118.434 93.017h19.132v64.328h-19.132z" />
                                    <path fill="#63BCE7" d="M151.592 87.284h19.132v70.061h-19.132z" />
                                    <path fill="#F8AF23"
                                        d="M193.308 169.874a7.323 7.323 0 0 0-7.323 7.323v-3.33c0-4.032-3.154-7.491-7.186-7.565a7.323 7.323 0 0 0-7.46 7.322v-3.193a7.323 7.323 0 0 0-14.646 0v-28.189a7.323 7.323 0 0 0-14.646 0v52.698l-9.025-9.025c-2.851-2.851-7.527-3.066-10.43-.268a7.323 7.323 0 0 0-.098 10.452l16.693 16.693a9.765 9.765 0 0 1 2.86 6.904v9.204h51.742v-7.906l3.711-6.349a22.918 22.918 0 0 0 3.131-11.562v-25.887a7.323 7.323 0 0 0-7.323-7.322z" />
                                    <g>
                                        <path fill="#F46275"
                                            d="M128 30.915c-13.232 0-23.959 10.727-23.959 23.959S114.768 78.833 128 78.833s23.959-10.727 23.959-23.959H128V30.915z" />
                                        <path fill="#F8AF23"
                                            d="M128 30.915v23.959h23.959c0-13.232-10.727-23.959-23.959-23.959z" />
                                        <g fill="#3F3679">
                                            <path
                                                d="m245.656 219.075 3.053-7.023a1.499 1.499 0 0 0-1.376-2.098h-14.352c3.722-2.766 6.148-7.182 6.148-12.165V74.012c0-8.362-6.803-15.165-15.164-15.165h-35.672v-16.31c0-.398-.158-.779-.439-1.061l-26.412-26.412a1.5 1.5 0 0 0-1.061-.439H69.207a1.5 1.5 0 0 0-1.5 1.5v42.721H32.035c-8.362 0-15.165 6.803-15.165 15.165v123.776c0 4.983 2.427 9.399 6.149 12.165H8.667a1.5 1.5 0 0 0-1.375 2.098l3.053 7.023a18.808 18.808 0 0 0 7.081 8.326H9.32a1.5 1.5 0 1 0 0 3h237.36a1.5 1.5 0 1 0 0-3h-8.105a18.792 18.792 0 0 0 7.081-8.324zm-21.69-157.227c6.707 0 12.164 5.457 12.164 12.165v123.776c0 6.708-5.457 12.165-12.164 12.165h-22.834c.516-1.759.84-3.572.951-5.409h21.859a6.787 6.787 0 0 0 6.779-6.78V74.037a6.787 6.787 0 0 0-6.779-6.78h-35.647v-5.409h35.671zm-31.472 158.39a1.49 1.49 0 0 0-.205.757v6.406h-48.741v-7.704a11.19 11.19 0 0 0-3.3-7.964l-16.692-16.693a5.779 5.779 0 0 1-1.705-4.171 5.781 5.781 0 0 1 1.783-4.141c2.268-2.186 6.005-2.076 8.328.249l9.025 9.024a1.499 1.499 0 0 0 2.561-1.061v-52.698a5.83 5.83 0 0 1 5.822-5.823 5.83 5.83 0 0 1 5.823 5.823v38.149a1.5 1.5 0 1 0 3 0v-9.96a5.83 5.83 0 0 1 5.823-5.823 5.83 5.83 0 0 1 5.822 5.823v12.551a1.5 1.5 0 1 0 3 0v-9.358a5.78 5.78 0 0 1 1.743-4.155c1.125-1.104 2.625-1.672 4.19-1.667 3.15.058 5.713 2.778 5.713 6.065v12.518a1.5 1.5 0 1 0 3 0v-9.188a5.83 5.83 0 0 1 5.822-5.823 5.83 5.83 0 0 1 5.823 5.823v25.887c0 3.794-1.012 7.531-2.926 10.805l-3.709 6.349zm-54.367-6.385a8.198 8.198 0 0 1 2.352 4.824H93.513a7.155 7.155 0 0 1-5.669-2.761l-2.321-2.963h51.705l.899.9zm-68.92-35.156h71.341v12.622l-6.465-6.464c-3.472-3.473-9.094-3.602-12.531-.287a8.76 8.76 0 0 0-2.701 6.273 8.757 8.757 0 0 0 2.584 6.32l4.384 4.384h-93.76a3.785 3.785 0 0 1-3.78-3.78V74.037a3.785 3.785 0 0 1 3.78-3.78h35.647v106.94c.001.828.672 1.5 1.501 1.5zm83.885-44.444V88.784h16.133v67.061h-11.031v-13.604c-.001-3.533-2.094-6.58-5.102-7.988zm8.79-114.505 21.291 21.291h-21.291V19.748zm31.426 148.626a8.773 8.773 0 0 0-5.014 1.57V70.256h35.647a3.784 3.784 0 0 1 3.779 3.78v123.728a3.784 3.784 0 0 1-3.779 3.78H202.13v-24.348c.001-4.864-3.957-8.822-8.822-8.822zM70.707 17.626h88.175v24.912a1.5 1.5 0 0 0 1.5 1.5h24.912v123.879c-1.587-1.865-3.897-3.067-6.467-3.114-2.377-.066-4.643.853-6.347 2.525-.051.05-.101.1-.149.151-1.217-3.417-4.485-5.871-8.314-5.871a8.784 8.784 0 0 0-5.823 2.2v-4.963h12.531a1.5 1.5 0 0 0 1.5-1.5V87.284a1.5 1.5 0 0 0-1.5-1.5h-19.133a1.5 1.5 0 0 0-1.5 1.5v46.171a8.616 8.616 0 0 0-.722-.037c-4.864 0-8.822 3.958-8.822 8.823v33.455H70.707V17.626zM19.87 197.789V74.012c0-6.708 5.457-12.165 12.165-12.165h35.672v5.409H32.059a6.788 6.788 0 0 0-6.78 6.78v123.728a6.788 6.788 0 0 0 6.78 6.78h96.76l5.409 5.409H32.035c-6.708.001-12.165-5.456-12.165-12.164zm-4.434 23.888h29.14a1.5 1.5 0 1 0 0-3H13.478c-.132-.263-.264-.526-.383-.798l-2.141-4.925h70.758l3.77 4.813a10.138 10.138 0 0 0 8.031 3.911h47.035v5.723H27.615a15.826 15.826 0 0 1-12.179-5.724zm212.949 5.723h-33.096v-5.723h5.866a1.5 1.5 0 1 0 0-3h-4.274l1.914-3.275c.463-.792.87-1.613 1.239-2.449h45.012l-2.142 4.926c-.118.272-.25.535-.382.798h-31.098a1.5 1.5 0 1 0 0 3h29.14a15.819 15.819 0 0 1-12.179 5.723z" />
                                            <path
                                                d="M54.845 221.677H65.22a1.5 1.5 0 1 0 0-3H54.845a1.5 1.5 0 1 0 0 3zM27.323 238.374H9.32a1.5 1.5 0 1 0 0 3h18.003a1.5 1.5 0 1 0 0-3zM246.68 238.374h-18.003a1.5 1.5 0 1 0 0 3h18.003a1.5 1.5 0 1 0 0-3zM218.479 238.374H37.521a1.5 1.5 0 1 0 0 3H218.48a1.5 1.5 0 1 0-.001-3zM104.408 101.147H85.276a1.5 1.5 0 0 0-1.5 1.5v54.698a1.5 1.5 0 0 0 1.5 1.5h19.132a1.5 1.5 0 0 0 1.5-1.5v-54.698a1.5 1.5 0 0 0-1.5-1.5zm-1.5 54.698H86.776v-51.698h16.132v51.698zM137.566 91.518h-19.133a1.5 1.5 0 0 0-1.5 1.5v64.328a1.5 1.5 0 0 0 1.5 1.5h19.133a1.5 1.5 0 0 0 1.5-1.5V93.018a1.5 1.5 0 0 0-1.5-1.5zm-1.5 64.327h-16.133V94.518h16.133v61.327zM153.459 54.874c0-14.038-11.421-25.459-25.459-25.459s-25.459 11.421-25.459 25.459S113.962 80.333 128 80.333s25.459-11.421 25.459-25.459zm-3.056-1.5H129.5V32.471c11.19.742 20.161 9.713 20.903 20.903zm-44.862 1.5c0-11.88 9.272-21.635 20.959-22.41v22.41a1.5 1.5 0 0 0 1.5 1.5h22.409C149.635 68.061 139.88 77.333 128 77.333c-12.384 0-22.459-10.075-22.459-22.459z" />
                                        </g>
                                    </g>
                                </svg>
