   <svg xmlns="http://www.w3.org/2000/svg" style="width: 100%" viewBox="0 0 512 512">
                                    <path d="M386.2 45.62v432.66H88.59a35.69 35.69 0 0 1-35.69-35.69v-397z"
                                        style="fill:#def1f9" />
                                    <path style="fill:#9dc0d1"
                                        d="M386.2 114.27v21.82H161.32l17.49 17.49-8.49 8.48-37.05-37.04 36.95-36.96 8.49 8.5L161 114.27h225.2zM85.72 478.28a36.56 36.56 0 0 0 36.55-36.56h318a36.55 36.55 0 0 1-36.55 36.56h-318z" />
                                    <path style="fill:#3dc9c9"
                                        d="M91.95 225.67h40.32v40.32H91.95zM91.95 295.72h40.32v40.32H91.95zM91.95 365.7h40.32v40.32H91.95z" />
                                    <path style="fill:#83afc6"
                                        d="M175 410.39h76.67v12H175zM175 389.45h76.67v12H175zM175.04 368.08h41.31v12h-41.31zM264.33 410.39h44.16v12h-44.16zM264.33 389.45h44.16v12h-44.16z" />
                                    <path
                                        d="M111.66 181.25c-5.36 0-9.18 3.92-9.18 9.39s3.71 9.39 9.18 9.39 9.29-4 9.29-9.39-3.72-9.39-9.29-9.39zM113.11 128.21a35.32 35.32 0 0 0-17.23 4.24l3.5 11.24a19.48 19.48 0 0 1 10.22-3.09c5.16.2 7.53 2.58 7.53 6.19s-2.68 6.81-6 10.73c-4.65 5.57-6.4 10.94-6.09 16.2l.1 2.68h13.72v-1.86c-.1-4.64 1.45-8.66 5.27-12.89s8.77-9.5 8.77-17.34c.02-8.56-6.17-16.1-19.79-16.1zM198.26 202.97v94.39l37.21 21.49 5.75 3.31 38.79 22.4 81.75-47.19v-94.4l-81.75-47.2-81.75 47.2z"
                                        style="fill:#f47a53" />
                                    <path style="fill:#ffaf9f"
                                        d="m361.75 202.74-81.74 47.2-81.74-47.2 81.74-47.2 81.74 47.2z" />
                                    <path style="fill:#def1f9"
                                        d="M332.92 219.46v94.39l-24.63 14.22v-95.04l-81.19-46.87 24.07-13.9 81.75 47.2z" />
                                    <path
                                        d="M361.12 262.7h53.47c21.38 0 40.73-9.5 54.74-24.85l8.67-11.31a90.21 90.21 0 0 0 14-48.69C492 131 457.35 93 414.59 93H154l-12.26 10.75L154 114.83h256.33c33 0 59.67 28.22 59.67 63 0 34.81-26.71 63-59.67 63H361z"
                                        style="fill:#3dc9c9" />
                                    <path
                                        d="M116.95 232.53v-12H86.74v50.74h50.74v-34.33l10.69-10.69-8.48-8.49-23.81 23.8-6.83-6.82-8.48 8.48 15.31 15.32 9.6-9.6v10.33H98.74v-26.74h18.21zM86.74 341.25h50.74v-34.33l10.69-10.7-8.48-8.48-23.81 23.8-6.83-6.83-8.48 8.49 15.31 15.31 9.6-9.59v10.33H98.74v-26.74h18.21v-12H86.74v50.74zM86.74 411.23h50.74v-34.34l10.69-10.69-8.48-8.49-23.81 23.81-6.83-6.83-8.48 8.49 15.31 15.31 9.6-9.6v10.34H98.74v-26.74h18.21v-12H86.74v50.74z" />
                                    <path
                                        d="M414.59 87H392.2V39.62H46.9v309.13h12V51.62h321.3V87H167l11.71-11.71-8.49-8.49-36.95 37 37 37.05 8.49-8.48-11.49-11.49h61.23v-12h-73.18l-5.08-5.08L155 99h225.2v9.83h-19.7v12h19.7v98.67h12v-98.67h18.13c29.59 0 53.67 25.58 53.67 57s-24.08 57-53.67 57h-42.47v-35.5L280 148.61l-87.85 50.72v101.44L280 351.49l87.85-50.72V268.7h12.35v167H116.27v6a30.58 30.58 0 0 1-28.64 30.49 30.68 30.68 0 0 1-28.73-30.46v-76h-12v76a42.76 42.76 0 0 0 38.82 42.37v.18h318.01a42.6 42.6 0 0 0 42.55-42.56v-6H392.2v-167h22.39c22.39 0 43.4-9.52 59.18-26.81l-8.87-8.08c-13.47 14.76-31.34 22.89-50.31 22.89h-46.73v-9.83h42.47c36.21 0 65.67-31 65.67-69s-29.46-69-65.67-69H392.2V99h22.39C454 99 486 134.37 486 177.85a84 84 0 0 1-13 45.45l10.11 6.47A96 96 0 0 0 498 177.85C498 127.76 460.59 87 414.59 87zm-10.86 385.28H115.3a42.53 42.53 0 0 0 12.55-24.56h305.84a30.59 30.59 0 0 1-29.96 24.56zM349.86 202.8 333 212.51l-69.85-40.33 16.85-9.71zM280 243.12l-69.84-40.32 17-9.84 69.85 40.32zm6 10.4 16.5-9.52v80.65l-16.5 9.52zm28.49-16.45 12.51-7.24v80.65l-12.54 7.24zm-5.45-10.71L239.2 186l12-6.92 69.8 40.36zm-104.88-13.17L274 253.52v80.65l-69.85-40.33zM339 303.56V222.9l16.82-9.71v80.65z" />
                                    <path
                                        d="M241.5 108.83h106.25v12H241.5zM175 399.23h76.67v12H175zM175 378.28h76.67v12H175zM175.04 356.92h41.31v12h-41.31zM264.33 399.23h44.16v12h-44.16zM264.33 378.28h44.16v12h-44.16z" />
                                </svg>
